<svg xmlns="http://www.w3.org/2000/svg" version="1.1" xmlns:xlink="http://www.w3.org/1999/xlink" xmlns:svgjs="http://svgjs.com/svgjs" width="1000" height="1000"><rect width="1000" height="1000" rx="200" ry="200" fill="#18bc9c"></rect><g transform="matrix(4.150023343881309,0,0,4.150023343881309,132.51442693006737,99.94257898120827)"><svg xmlns="http://www.w3.org/2000/svg" version="1.1" xmlns:xlink="http://www.w3.org/1999/xlink" xmlns:svgjs="http://svgjs.com/svgjs" width="176.99" height="192.77"><svg viewBox="0 0 176.99 192.77" xmlns="../../external.html?link=http://www.w3.org/2000/svg">
    <path transform="translate(-208.88 -382.9)" d="M307.54,522.49a51.53,51.53,0,0,0,11.06-1.07,54.49,54.49,0,0,0,9.09-2.86v-19.7H314.85a6.2,6.2,0,0,1-4.45-1.52,5,5,0,0,1-1.61-3.83V476.92H355v54.84a66.63,66.63,0,0,1-21.89,10.61,86.08,86.08,0,0,1-13,2.5,130.26,130.26,0,0,1-14.85.8,68.06,68.06,0,0,1-26.39-5,63.19,63.19,0,0,1-34.91-34.95,68.46,68.46,0,0,1-5-26.44,72,72,0,0,1,4.82-26.71,60.28,60.28,0,0,1,13.77-21,62.65,62.65,0,0,1,21.67-13.73,78.32,78.32,0,0,1,28.4-4.9,82.93,82.93,0,0,1,15.25,1.33,76.29,76.29,0,0,1,13.15,3.66,60.92,60.92,0,0,1,11,5.53,59.93,59.93,0,0,1,8.92,6.95l-8.74,13.29a9.7,9.7,0,0,1-3,2.94,7.06,7.06,0,0,1-3.79,1.07,10.41,10.41,0,0,1-5.53-1.78q-3.57-2.14-6.74-3.7a40.64,40.64,0,0,0-6.46-2.54,42,42,0,0,0-7-1.43,67.63,67.63,0,0,0-8.2-.44,37.45,37.45,0,0,0-15.25,3,32.68,32.68,0,0,0-11.54,8.43,38.11,38.11,0,0,0-7.36,13.06,52.78,52.78,0,0,0-2.59,17,54.46,54.46,0,0,0,2.86,18.37,39.34,39.34,0,0,0,7.89,13.55,33.43,33.43,0,0,0,11.95,8.43A38.68,38.68,0,0,0,307.54,522.49Z" fill="none" stroke="#233140" stroke-linejoin="round" stroke-width="60px"></path>
    <path transform="translate(-208.88 -382.9)" d="M307.54,522.49a51.53,51.53,0,0,0,11.06-1.07,54.49,54.49,0,0,0,9.09-2.86v-19.7H314.85a6.2,6.2,0,0,1-4.45-1.52,5,5,0,0,1-1.61-3.83V476.92H355v54.84a66.63,66.63,0,0,1-21.89,10.61,86.08,86.08,0,0,1-13,2.5,130.26,130.26,0,0,1-14.85.8,68.06,68.06,0,0,1-26.39-5,63.19,63.19,0,0,1-34.91-34.95,68.46,68.46,0,0,1-5-26.44,72,72,0,0,1,4.82-26.71,60.28,60.28,0,0,1,13.77-21,62.65,62.65,0,0,1,21.67-13.73,78.32,78.32,0,0,1,28.4-4.9,82.93,82.93,0,0,1,15.25,1.33,76.29,76.29,0,0,1,13.15,3.66,60.92,60.92,0,0,1,11,5.53,59.93,59.93,0,0,1,8.92,6.95l-8.74,13.29a9.7,9.7,0,0,1-3,2.94,7.06,7.06,0,0,1-3.79,1.07,10.41,10.41,0,0,1-5.53-1.78q-3.57-2.14-6.74-3.7a40.64,40.64,0,0,0-6.46-2.54,42,42,0,0,0-7-1.43,67.63,67.63,0,0,0-8.2-.44,37.45,37.45,0,0,0-15.25,3,32.68,32.68,0,0,0-11.54,8.43,38.11,38.11,0,0,0-7.36,13.06,52.78,52.78,0,0,0-2.59,17,54.46,54.46,0,0,0,2.86,18.37,39.34,39.34,0,0,0,7.89,13.55,33.43,33.43,0,0,0,11.95,8.43A38.68,38.68,0,0,0,307.54,522.49Z" fill="#F1F2F2"></path>
</svg></svg></g></svg>