<?xml version="1.0" encoding="UTF-8"?>
<svg viewBox="0 0 610 132" xmlns="../../external.html?link=http://www.w3.org/2000/svg">
    <path class="st0" d="m65.92 131.88c-9.22 0-17.96-1.69-25.97-5.02-8-3.32-15.06-8.01-20.99-13.94s-10.63-13.01-13.95-21.04c-3.32-8.02-5.01-16.76-5.01-25.97 0-9.24 1.59-17.96 4.74-25.9 3.24-8.18 7.96-15.37 14.06-21.37 6.06-5.97 13.4-10.64 21.8-13.89 8.17-3.15 17.25-4.75 26.99-4.75 5 0 9.81 0.43 14.32 1.27 4.49 0.84 8.74 2.03 12.65 3.53 0.81 0.31 1.6 0.63 2.38 0.97v-4.75h48.56c8.45 0 15.98 0.95 22.38 2.81 7.12 2.08 13.22 5.18 18.13 9.21 5.36 4.41 9.35 9.79 11.86 15.98 2.24 5.54 3.38 11.55 3.38 17.85 0 2.37-0.16 4.71-0.49 7l20.46-52.85h47.02l13.37 34.53v-34.53h52.54c8.11 0 15.02 0.78 21.14 2.4 4.46 1.18 8.51 2.76 12.1 4.72v-7.12h138.57c7.52 0 12.68 2.82 15.69 5.19 3.22 2.54 5.8 5.73 7.68 9.49l2.29 4.71 2.1-4.37c0.87-1.84 1.99-3.62 3.33-5.28 1.33-1.64 2.85-3.13 4.51-4.43 2.03-1.58 4.31-2.84 6.78-3.76 2.78-1.03 5.74-1.55 8.78-1.55h50.81l-47.38 81.03v48.8h-57.89v-48.8l-9.46-16.18v28.53h-32.01v36.45h-93.8v-7.27c-2.97 1.67-6.2 3.08-9.66 4.22-6.17 2.03-13.11 3.06-20.62 3.06h-61.84c-5.75 0-10.87-1.59-15.22-4.72-4.26-3.06-7.4-7.27-9.08-12.18l-1.39-4.12h-9.68l-1.47 4.33c-1.6 4.49-4.45 8.34-8.45 11.45-4.43 3.43-9.84 5.24-15.65 5.24h-42.34c-6.57 0-12.48-2.02-17.14-5.73v5.73h-57.89v-4.01c-1.98 0.76-4.03 1.43-6.11 2-3.81 1.06-7.89 1.84-12.13 2.34-4 0.45-8.31 0.69-12.8 0.69z" fill="#fff"/>
    <path class="st1" d="m47.5 44.24c2.29-2.61 5.07-4.64 8.32-6.07 3.26-1.44 6.92-2.15 10.99-2.15 2.19 0 4.16 0.11 5.91 0.32 1.76 0.21 3.43 0.56 5.01 1.03s3.14 1.08 4.66 1.83 3.14 1.64 4.85 2.67c1.37 0.86 2.7 1.29 3.99 1.29 0.99 0 1.9-0.26 2.73-0.77s1.55-1.22 2.15-2.12l6.3-9.58c-1.89-1.8-4.03-3.47-6.43-5.01s-5.05-2.87-7.94-3.99c-2.89-1.11-6.05-1.99-9.48-2.64-3.43-0.64-7.09-0.96-10.99-0.96-7.54 0-14.37 1.18-20.47 3.54-6.11 2.36-11.31 5.66-15.62 9.9s-7.62 9.29-9.93 15.14-3.47 12.27-3.47 19.25c0 6.86 1.21 13.21 3.63 19.06s5.76 10.91 10.03 15.17c4.26 4.26 9.31 7.61 15.14 10.03s12.17 3.63 19.03 3.63c3.81 0 7.38-0.19 10.7-0.58s6.45-0.99 9.39-1.8 5.7-1.85 8.29-3.12c2.59-1.26 5.09-2.77 7.49-4.53v-39.53h-33.3v11.96c0 1.12 0.39 2.04 1.16 2.76 0.77 0.73 1.84 1.09 3.21 1.09h9.26v14.21c-2.06 0.86-4.24 1.54-6.56 2.06-2.31 0.51-4.97 0.77-7.97 0.77-3.94 0-7.58-0.7-10.9-2.09s-6.19-3.42-8.61-6.07c-2.42-2.66-4.32-5.91-5.69-9.77s-2.06-8.27-2.06-13.24c0-4.5 0.62-8.58 1.86-12.25 1.26-3.68 3.03-6.82 5.32-9.44zm186.12-25.13-36.26 93.66h16.97c1.8 0 3.32-0.48 4.56-1.45 1.24-0.96 2.08-2.05 2.51-3.25l5.53-16.33h35.61l5.53 16.33c0.47 1.37 1.32 2.5 2.54 3.38s2.77 1.32 4.66 1.32h16.84l-36.26-93.66h-22.23zm-1.67 57.85 8.61-25.52c0.64-1.63 1.33-3.56 2.06-5.79s1.44-4.65 2.12-7.26c0.73 2.57 1.47 4.96 2.22 7.17s1.4 4.13 1.96 5.75l8.61 25.65h-25.58zm-63.53-0.7c-1.26-1.07-2.63-1.97-4.08-2.7 3.04-1.16 5.73-2.64 8.07-4.44s4.31-3.85 5.91-6.14c1.61-2.29 2.82-4.79 3.63-7.49s1.22-5.57 1.22-8.61c0-3.99-0.69-7.67-2.06-11.06s-3.57-6.32-6.59-8.81-6.92-4.42-11.7-5.82c-4.78-1.39-10.55-2.09-17.32-2.09h-30.47v93.66h21.73v-34.65h5.53c1.67 0 2.97 0.26 3.89 0.77s1.72 1.37 2.41 2.57l15.56 27.19c1.59 2.74 4.2 4.11 7.84 4.11h19.67l-19.93-32.59c-0.94-1.53-2.05-2.83-3.31-3.9zm-7.36-22.02c-0.6 1.78-1.56 3.33-2.89 4.66s-3.03 2.37-5.11 3.12-4.6 1.13-7.55 1.13h-8.74v-27.78h8.73c5.61 0 9.76 1.16 12.44 3.47s4.02 5.53 4.02 9.64c0 2.06-0.3 3.98-0.9 5.76zm193.03 10.06c2.83-1.03 5.25-2.24 7.26-3.63s3.66-2.95 4.95-4.66 2.23-3.55 2.83-5.5 0.9-3.97 0.9-6.08c0-3.86-0.65-7.35-1.96-10.48s-3.4-5.79-6.27-7.97c-2.87-2.19-6.58-3.88-11.12-5.08s-10.05-1.8-16.52-1.8h-34.46v93.66h37.41c5.61 0 10.61-0.72 14.98-2.15 4.37-1.44 8.05-3.43 11.02-5.98 2.98-2.55 5.24-5.54 6.78-8.97s2.31-7.14 2.31-11.12c0-5.27-1.48-9.59-4.44-12.95-2.94-3.36-7.5-5.79-13.67-7.29zm-32.66-28.93h12.73c2.44 0 4.55 0.19 6.33 0.58s3.25 1.03 4.4 1.93c1.16 0.9 2.01 2.09 2.57 3.57s0.84 3.33 0.84 5.56c0 2.27-0.35 4.16-1.06 5.66s-1.74 2.68-3.09 3.54-2.99 1.46-4.92 1.8-4.09 0.51-6.49 0.51h-11.31v-23.15zm28.73 53.16c-0.39 1.46-1.09 2.76-2.12 3.92s-2.45 2.1-4.28 2.83c-1.82 0.73-4.17 1.09-7.04 1.09h-15.3v-23.33h15.17c2.74 0 5.01 0.26 6.81 0.77s3.25 1.24 4.34 2.19c1.09 0.94 1.86 2.1 2.31 3.47s0.68 2.92 0.68 4.63c0.01 1.5-0.18 2.98-0.57 4.43zm71.1 24.24h21.86v-36.45h32.01v-16.78h-32.01v-23.72h38.44v-16.71h-60.3v93.66zm135.88-93.66c-0.9 0-1.73 0.14-2.48 0.42s-1.41 0.64-1.99 1.09-1.09 0.95-1.54 1.51-0.8 1.12-1.06 1.67l-13.11 27.26c-1.03 2.14-1.99 4.14-2.89 5.98s-1.67 3.69-2.31 5.53c-0.69-1.8-1.48-3.62-2.38-5.46s-1.89-3.86-2.96-6.04l-13.24-27.26c-0.69-1.37-1.59-2.5-2.7-3.38s-2.61-1.32-4.5-1.32h-19.16l33.94 58.05v35.61h21.73v-35.61l33.94-58.05h-19.29zm-171.66 93.66h21.86v-93.66h-21.86v93.66z" fill="#233140"/>
</svg>
