<svg xmlns="http://www.w3.org/2000/svg" version="1.1" xmlns:xlink="http://www.w3.org/1999/xlink" xmlns:svgjs="http://svgjs.com/svgjs" width="512" height="512" x="0" y="0" viewBox="0 0 64 64" style="enable-background:new 0 0 512 512" xml:space="preserve"><g><linearGradient id="SVGID_1_" gradientUnits="userSpaceOnUse" x1="32" x2="32" y1="63" y2="1"><stop offset="0" stop-color="#18BC9C"></stop><stop offset="1" stop-color="#2C3E50"></stop></linearGradient><path d="m31 18c0-7.168-5.832-13-13-13s-13 5.832-13 13 5.832 13 13 13 13-5.832 13-13zm-16.009 7h6.018c-.789 2.473-1.935 4-3.009 4s-2.22-1.527-3.009-4zm-7.94-6h4.971c.046 1.419.184 2.763.409 4h-4.217c-.626-1.221-1.034-2.57-1.163-4zm10.949-12c1.075 0 2.22 1.527 3.009 4h-6.018c.789-2.473 1.934-4 3.009-4zm3.519 6c.244 1.209.408 2.553.46 4h-7.958c.052-1.447.217-2.791.46-4zm7.43 4h-4.971c-.046-1.419-.184-2.763-.409-4h4.217c.626 1.221 1.034 2.57 1.163 4zm0 2c-.13 1.43-.537 2.779-1.164 4h-4.217c.225-1.237.364-2.581.409-4zm-16.927-2h-4.971c.13-1.43.537-2.779 1.164-4h4.217c-.226 1.237-.365 2.581-.41 4zm1.999 2h7.958c-.052 1.447-.217 2.791-.46 4h-7.038c-.244-1.209-.408-2.553-.46-4zm7.693 9.341c.553-.919 1.023-2.046 1.391-3.341h3.374c-1.247 1.507-2.891 2.666-4.765 3.341zm4.765-17.341h-3.374c-.368-1.295-.838-2.422-1.391-3.341 1.874.675 3.518 1.834 4.765 3.341zm-12.193-3.341c-.553.919-1.023 2.046-1.391 3.341h-3.374c1.247-1.507 2.891-2.666 4.765-3.341zm-4.765 17.341h3.374c.368 1.295.838 2.422 1.391 3.341-1.874-.675-3.518-1.834-4.765-3.341zm45.14-1.424c3.769-2.026 6.339-6.006 6.339-10.576 0-6.617-5.383-12-12-12-5.213 0-9.647 3.347-11.3 8h-5.304c-3.009-4.795-8.329-8-14.396-8-9.374 0-17 7.626-17 17 0 7.994 5.553 14.699 13 16.505v3.495c0 .395.081.77.22 1.116-1.275.345-2.22 1.501-2.22 2.884v15c0 3.309 2.691 6 6 6s6-2.691 6-6v-8h2.181c-.11.652-.181 1.317-.181 2 0 6.617 5.383 12 12 12s12-5.383 12-12c0-1.418-.279-2.818-.772-4.146.58.087 1.168.146 1.772.146 6.617 0 12-5.383 12-12 0-5.34-3.508-9.872-8.339-11.424zm-8.661-13.576c0-1.654 1.346-3 3-3s3 1.346 3 3-1.346 3-3 3-3-1.346-3-3zm5.577 5.493c-.524.912-1.493 1.507-2.577 1.507s-2.053-.595-2.577-1.507c.8-.316 1.669-.493 2.577-.493s1.777.177 2.577.493zm-6.883.992c.874 1.521 2.492 2.515 4.306 2.515s3.432-.994 4.306-2.515c1.205.942 2.096 2.276 2.479 3.84-1.785 1.654-4.165 2.675-6.785 2.675s-5-1.021-6.785-2.675c.382-1.565 1.274-2.898 2.479-3.84zm4.306-13.485c5.514 0 10 4.486 10 10 0 2.057-.626 3.971-1.695 5.562-.923-2.25-2.708-4.005-4.925-4.901.989-.914 1.62-2.211 1.62-3.661 0-2.757-2.243-5-5-5s-5 2.243-5 5c0 1.45.631 2.747 1.62 3.661-2.217.896-4.002 2.651-4.925 4.901-1.069-1.591-1.695-3.505-1.695-5.562 0-5.514 4.486-10 10-10zm-11.819 8c-.11.652-.181 1.317-.181 2 0 5.34 3.508 9.872 8.339 11.424-2.611 1.404-4.635 3.75-5.639 6.576h-10.768c3.705-3.121 6.068-7.788 6.068-13 0-2.497-.555-4.862-1.526-7zm-34.181 7c0-8.271 6.729-15 15-15s15 6.729 15 15-6.729 15-15 15-15-6.729-15-15zm15 17c.678 0 1.343-.051 2-.128v3.128c0 .551-.449 1-1 1h-2c-.551 0-1-.449-1-1v-3.128c.657.077 1.322.128 2 .128zm4 22c0 2.206-1.794 4-4 4s-4-1.794-4-4v-15c0-.551.449-1 1-1h2 2 2c.551 0 1 .449 1 1zm2-10v-5c0-1.383-.945-2.539-2.22-2.884.139-.346.22-.721.22-1.116v-3.495c1.402-.34 2.74-.841 3.983-1.505h13.198c-.11.652-.181 1.317-.181 2 0 1.456.274 2.846.751 4.138-.581-.088-1.166-.138-1.751-.138-5.213 0-9.647 3.347-11.3 8zm7.215 11.325c.44-1.804 1.557-3.301 3.051-4.244l3.734 4.481 3.734-4.481c1.494.943 2.611 2.44 3.051 4.244-1.785 1.654-4.165 2.675-6.785 2.675s-5-1.021-6.785-2.675zm3.785-10.325c0-1.654 1.346-3 3-3s3 1.346 3 3-1.346 3-3 3-3-1.346-3-3zm3 5c.632 0 1.245.085 1.83.242l-1.83 2.196-1.83-2.196c.585-.157 1.198-.242 1.83-.242zm10-2c0 2.057-.626 3.971-1.695 5.562-.923-2.25-2.708-4.005-4.925-4.901.989-.914 1.62-2.211 1.62-3.661 0-2.757-2.243-5-5-5s-5 2.243-5 5c0 1.45.631 2.747 1.62 3.661-2.217.896-4.002 2.651-4.925 4.901-1.069-1.591-1.695-3.505-1.695-5.562 0-5.514 4.486-10 10-10 .972 0 1.943.155 2.894.444 1.38 2.157 3.428 3.839 5.853 4.763.811 1.476 1.253 3.122 1.253 4.793zm-3.785-8.675c.382-1.565 1.274-2.898 2.479-3.84.874 1.521 2.492 2.515 4.306 2.515s3.432-.994 4.306-2.515c1.205.942 2.096 2.276 2.479 3.84-1.785 1.654-4.165 2.675-6.785 2.675s-5-1.021-6.785-2.675zm3.785-10.325c0-1.654 1.346-3 3-3s3 1.346 3 3-1.346 3-3 3-3-1.346-3-3zm5.577 5.493c-.524.912-1.493 1.507-2.577 1.507s-2.053-.595-2.577-1.507c.8-.316 1.669-.493 2.577-.493s1.777.177 2.577.493zm5.728 3.069c-.923-2.25-2.708-4.005-4.925-4.901.989-.914 1.62-2.211 1.62-3.661 0-2.757-2.243-5-5-5s-5 2.243-5 5c0 1.45.631 2.747 1.62 3.661-2.217.896-4.002 2.651-4.925 4.901-1.069-1.591-1.695-3.505-1.695-5.562 0-5.514 4.486-10 10-10s10 4.486 10 10c0 2.057-.626 3.971-1.695 5.562z" fill="url(#SVGID_1_)" data-original="url(#SVGID_1_)"></path></g></svg>
