<svg xmlns="http://www.w3.org/2000/svg" version="1.1" xmlns:xlink="http://www.w3.org/1999/xlink" xmlns:svgjs="http://svgjs.com/svgjs" width="512" height="512" x="0" y="0" viewBox="0 0 512 512" style="enable-background:new 0 0 512 512" xml:space="preserve" class=""><g><linearGradient id="linear-gradient" gradientUnits="userSpaceOnUse" x1="42.156" x2="477.844" y1="493.47" y2="57.783"><stop offset="0" stop-color="#18BC9C"></stop><stop offset="1" stop-color="#2C3E50"></stop></linearGradient><g id="gradient"><path d="m488 360a8 8 0 0 0 -8-8h-49.378a21.651 21.651 0 0 0 -7.346-9.884l-3.508-2.633a21.833 21.833 0 0 0 -30.531 4.363l-6.115 8.154h-63.122a8 8 0 0 0 -8 8v128a8 8 0 0 0 8 8h160a8 8 0 0 0 8-8zm-85.962-6.555a5.809 5.809 0 0 1 8.13-1.162l3.509 2.633a5.808 5.808 0 0 1 1.161 8.13l-25.316 33.754-12.8-9.6zm-22.117 56.155-2.812 3.749-11.2 1.6-1.6-11.2 2.813-3.749zm60.079 70.4h-112v-112h43.122l-12 16-9.6 12.8a8 8 0 0 0 -1.522 5.931l3.2 22.4a8 8 0 0 0 9.052 6.788l22.4-3.2a8.01 8.01 0 0 0 5.269-3.12l9.6-12.8v-.006l30.113-40.148a21.748 21.748 0 0 0 2.641-4.645h9.725zm32 0h-16v-112h16zm-278.49-147.322a8 8 0 0 0 6.49 3.322h112a8 8 0 0 0 7.59-10.53l-12.49-37.47h114.9a34.038 34.038 0 0 0 34-34v-204a34.038 34.038 0 0 0 -34-34h-332a34.038 34.038 0 0 0 -34 34v204a34.038 34.038 0 0 0 34 34h114.9l-5.333 16h-63.567a24 24 0 0 0 0 48h8a8.009 8.009 0 0 1 8 8v8h-120a8 8 0 0 0 -8 8v96a8 8 0 0 0 8 8h256a8 8 0 0 0 8-8v-96a8 8 0 0 0 -8-8h-120v-8a24.028 24.028 0 0 0 -24-24h-8a8 8 0 0 1 0-16h58.233l-1.823 5.47a8.006 8.006 0 0 0 1.1 7.208zm17.59-12.678 10.666-32h68.468l10.666 32zm-139.1-270a18.021 18.021 0 0 1 18-18h332a18.021 18.021 0 0 1 18 18v174h-368zm18 222a18.021 18.021 0 0 1 -18-18v-14h368v14a18.021 18.021 0 0 1 -18 18zm190 112v80h-240v-80zm-208 32h-16v-16h16zm32 0h-16v-16h16zm32 0h-16v-16h16zm32 0h-16v-16h16zm32 0h-16v-16h16zm32 0h-16v-16h16zm32 0h-16v-16h16zm-32 32h-16v-16h16zm32 0h-16v-16h16zm-64 0h-80v-16h80zm-128 0h-16v-16h16zm32 0h-16v-16h16zm280 0a8 8 0 0 1 -8 8h-24a8 8 0 0 1 0-16h24a8 8 0 0 1 8 8zm40 0a8 8 0 0 1 -8 8h-8a8 8 0 0 1 0-16h8a8 8 0 0 1 8 8zm-55.432-273.941 5.658-5.657a8 8 0 0 0 -4.088-13.5l-36.565-7.313a80.1 80.1 0 1 0 -22.768 38.665l4.664 23.317a8 8 0 0 0 13.5 4.088l5.658-5.659 5.658 5.657a8 8 0 0 0 11.314 0l22.627-22.627a8 8 0 0 0 0-11.313zm-53.255-70.059a63.426 63.426 0 0 1 4.169 16h-31.627c-.193-5.375-.582-10.748-1.171-16zm-9.406-16h-21.75a106.2 106.2 0 0 0 -6.085-20.075 64.262 64.262 0 0 1 27.835 20.075zm-59.288-8.382c4.301-12.903 8.694-15.618 9.381-15.618s5.08 2.715 9.381 15.618c.872 2.617 1.66 5.426 2.369 8.382h-23.5c.709-2.956 1.497-5.765 2.369-8.382zm-49.932 24.382h28.629c-.589 5.252-.978 10.625-1.171 16h-31.627a63.426 63.426 0 0 1 4.169-16zm0 48a63.426 63.426 0 0 1 -4.169-16h31.627c.193 5.375.582 10.748 1.171 16zm9.406 16h21.75a106.2 106.2 0 0 0 6.085 20.075 64.262 64.262 0 0 1 -27.835-20.075zm21.75-80h-21.75a64.262 64.262 0 0 1 27.835-20.075 106.2 106.2 0 0 0 -6.085 20.075zm37.538 88.382c-4.301 12.903-8.694 15.618-9.381 15.618s-5.08-2.715-9.381-15.618c-.872-2.617-1.66-5.426-2.369-8.382h23.5c-.709 2.956-1.497 5.765-2.369 8.382zm5.2-24.382h-29.163c-.629-5.114-1.053-10.477-1.262-16h31.688c-.209 5.523-.633 10.886-1.262 16zm-30.426-32c.209-5.523.633-10.886 1.262-16h29.164c.629 5.114 1.053 10.477 1.262 16zm37.884 68.147a106.031 106.031 0 0 0 6.118-20.147h21.776a63.517 63.517 0 0 1 -27.893 20.147zm39.823-43.7-4.294-.859a8 8 0 0 0 -9.547 8.412h-17.337c.589-5.252.978-10.625 1.171-16h31.645a63.59 63.59 0 0 1 -1.637 8.446zm28.078 52.241-5.658-5.658a8 8 0 0 0 -11.313 0l-.743.744-6.026-30.144 30.144 6.028-.744.743a8 8 0 0 0 0 11.314l5.657 5.658zm-191.5-44.781a7.992 7.992 0 0 1 -9.128-6.684 113.209 113.209 0 0 1 -1.312-17.223 111.461 111.461 0 0 1 31.182-77.539 8 8 0 0 1 11.543 11.078 95.543 95.543 0 0 0 -26.725 66.461 97.067 97.067 0 0 0 1.13 14.778 8 8 0 0 1 -6.685 9.128zm20.641 27.779a8 8 0 1 1 -13.473 8.63c-1.785-2.787-3.465-5.687-4.993-8.62a8 8 0 1 1 14.192-7.39c1.312 2.509 2.75 4.994 4.279 7.379z" fill="url(#linear-gradient)" data-original="url(#linear-gradient)" class=""></path></g></g></svg>
